<?xml version="1.0" encoding="UTF-8" standalone="no"?>
<!-- Generator: Adobe Illustrator 16.1.0, SVG Export Plug-In . SVG Version: 6.00 Build 0)  -->

<svg
   version="1.1"
   id="Layer_1"
   x="0px"
   y="0px"
   width="48px"
   height="48px"
   viewBox="0 0 48 48"
   enable-background="new 0 0 48 48"
   xml:space="preserve"
   sodipodi:docname="ListZ.svg"
   inkscape:version="1.4.2 (ebf0e940d0, 2025-05-08)"
   xmlns:inkscape="http://www.inkscape.org/namespaces/inkscape"
   xmlns:sodipodi="http://sodipodi.sourceforge.net/DTD/sodipodi-0.dtd"
   xmlns="http://www.w3.org/2000/svg"
   xmlns:svg="http://www.w3.org/2000/svg"><defs
   id="defs3">
	
	
	
	
	
</defs><sodipodi:namedview
   id="namedview3"
   pagecolor="#505050"
   bordercolor="#eeeeee"
   borderopacity="1"
   inkscape:showpageshadow="0"
   inkscape:pageopacity="0"
   inkscape:pagecheckerboard="0"
   inkscape:deskcolor="#505050"
   inkscape:zoom="12.344906"
   inkscape:cx="17.375588"
   inkscape:cy="29.890872"
   inkscape:window-width="1920"
   inkscape:window-height="1043"
   inkscape:window-x="0"
   inkscape:window-y="0"
   inkscape:window-maximized="1"
   inkscape:current-layer="Layer_1" />

<g
   class="Page"
   id="g13"
   transform="matrix(0.01775872,0,0,0.01775872,-50.75103,-70.121731)">
  <g
   class="com.sun.star.drawing.CustomShape"
   id="g12">
   <g
   id="id3">
    <rect
   class="BoundingBox"
   stroke="none"
   fill="none"
   x="3108"
   y="5267"
   width="1538"
   height="1295"
   id="rect10" />
    <path
   fill="#ffffff"
   stroke="none"
   d="m 4118,5799 -25,-1 -25,-2 -25,-3 -25,-4 -25,-6 -24,-7 -24,-9 -23,-9 -23,-11 -22,-12 -22,-13 -21,-14 -20,-15 -19,-17 -19,-17 -17,-18 -17,-19 -15,-20 -15,-21 -13,-21 -12,-22 -12,-23 -9,-23 -9,-24 -8,-24 -6,-24 -5,-25 -4,-25 -2,-25 -1,-25 -469,7 2,50 5,49 7,49 10,48 12,48 15,48 17,46 19,46 22,44 24,44 26,42 29,40 30,39 33,38 34,35 37,34 37,32 40,30 41,28 42,25 44,24 45,21 46,19 46,16 48,14 48,12 49,8 49,7 49,4 50,1 v 240 l 474,-474 -474,-474 z"
   id="path11" />
    <path
   fill="none"
   stroke="#000000"
   stroke-width="106"
   stroke-linejoin="round"
   d="m 4118,5799 -25,-1 -25,-2 -25,-3 -25,-4 -25,-6 -24,-7 -24,-9 -23,-9 -23,-11 -22,-12 -22,-13 -21,-14 -20,-15 -19,-17 -19,-17 -17,-18 -17,-19 -15,-20 -15,-21 -13,-21 -12,-22 -12,-23 -9,-23 -9,-24 -8,-24 -6,-24 -5,-25 -4,-25 -2,-25 -1,-25 -469,7 2,50 5,49 7,49 10,48 12,48 15,48 17,46 19,46 22,44 24,44 26,42 29,40 30,39 33,38 34,35 37,34 37,32 40,30 41,28 42,25 44,24 45,21 46,19 46,16 48,14 48,12 49,8 49,7 49,4 50,1 v 240 l 474,-474 -474,-474 z"
   id="path12" />
   </g>
  </g>
 </g><rect
   style="fill:#999999;stroke:#1a1a1a;stroke-width:1.13619"
   id="rect1-9"
   width="4.9460793"
   height="4.9460793"
   x="34.710762"
   y="1.7981915" /><rect
   style="fill:#ffffff;stroke:#1a1a1a;stroke-width:1.13619"
   id="rect1-6-1"
   width="4.9460793"
   height="4.9460793"
   x="39.673347"
   y="1.7981915" /><rect
   style="fill:#999999;stroke:#1a1a1a;stroke-width:1.13619"
   id="rect1-9-5"
   width="4.9460793"
   height="4.9460793"
   x="34.710762"
   y="6.7593427" /><rect
   style="fill:#ffffff;stroke:#1a1a1a;stroke-width:1.13619"
   id="rect1-6-1-9"
   width="4.9460793"
   height="4.9460793"
   x="39.673347"
   y="6.7593427" /><rect
   style="fill:#999999;stroke:#1a1a1a;stroke-width:1.13619"
   id="rect1-9-1"
   width="4.9460793"
   height="4.9460793"
   x="34.710762"
   y="11.710365" /><rect
   style="fill:#ffffff;stroke:#1a1a1a;stroke-width:1.13619"
   id="rect1-6-1-2"
   width="4.9460793"
   height="4.9460793"
   x="39.673347"
   y="11.710365" /><rect
   style="fill:#999999;stroke:#1a1a1a;stroke-width:1.13619"
   id="rect1-9-5-3"
   width="4.9460793"
   height="4.9460793"
   x="34.710762"
   y="16.671516" /><rect
   style="fill:#ffffff;stroke:#1a1a1a;stroke-width:1.13619"
   id="rect1-6-1-9-1"
   width="4.9460793"
   height="4.9460793"
   x="39.673347"
   y="16.671516" /><rect
   style="fill:#999999;stroke:#1a1a1a;stroke-width:1.13619"
   id="rect1-9-4"
   width="4.9460793"
   height="4.9460793"
   x="34.710762"
   y="21.61442" /><rect
   style="fill:#ffffff;stroke:#1a1a1a;stroke-width:1.13619"
   id="rect1-6-1-5"
   width="4.9460793"
   height="4.9460793"
   x="39.673347"
   y="21.61442" /><rect
   style="fill:#999999;stroke:#1a1a1a;stroke-width:1.13619"
   id="rect1-9-5-36"
   width="4.9460793"
   height="4.9460793"
   x="34.710762"
   y="26.575571" /><rect
   style="fill:#ffffff;stroke:#1a1a1a;stroke-width:1.13619"
   id="rect1-6-1-9-10"
   width="4.9460793"
   height="4.9460793"
   x="39.673347"
   y="26.575571" /><rect
   style="fill:#999999;stroke:#1a1a1a;stroke-width:1.13619"
   id="rect1-9-1-2"
   width="4.9460793"
   height="4.9460793"
   x="34.710762"
   y="31.526594" /><rect
   style="fill:#ffffff;stroke:#1a1a1a;stroke-width:1.13619"
   id="rect1-6-1-2-0"
   width="4.9460793"
   height="4.9460793"
   x="39.673347"
   y="31.526594" /><rect
   style="fill:#999999;stroke:#1a1a1a;stroke-width:1.13619"
   id="rect1-9-5-3-1"
   width="4.9460793"
   height="4.9460793"
   x="34.710762"
   y="36.487743" /><rect
   style="fill:#ffffff;stroke:#1a1a1a;stroke-width:1.13619"
   id="rect1-6-1-9-1-5"
   width="4.9460793"
   height="4.9460793"
   x="39.673347"
   y="36.487743" /><rect
   style="fill:#999999;stroke:#1a1a1a;stroke-width:1.13619"
   id="rect1-9-5-8"
   width="4.9460793"
   height="4.9460793"
   x="34.710766"
   y="41.475067" /><rect
   style="fill:#ffffff;stroke:#1a1a1a;stroke-width:1.13619"
   id="rect1-6-1-9-9"
   width="4.9460793"
   height="4.9460793"
   x="39.673347"
   y="41.475067" /><rect
   style="fill:#999999;stroke:#1a1a1a;stroke-width:1.48312"
   id="rect1"
   width="6.4563389"
   height="6.4563389"
   x="2.5669861"
   y="2.0547037" /><rect
   style="fill:#ffffff;stroke:#1a1a1a;stroke-width:1.48312"
   id="rect1-6"
   width="6.4563389"
   height="6.4563389"
   x="9.0448704"
   y="2.0547037" /><rect
   style="fill:#ffffff;stroke:#1a1a1a;stroke-width:1.48312"
   id="rect1-3"
   width="6.4563389"
   height="6.4563389"
   x="15.506994"
   y="2.0714688" /><rect
   style="fill:#ffffff;stroke:#1a1a1a;stroke-width:1.48312"
   id="rect1-6-5"
   width="6.4563389"
   height="6.4563389"
   x="21.98488"
   y="2.0714688" /><rect
   style="fill:#999999;stroke:#1a1a1a;stroke-width:1.48312"
   id="rect1-93"
   width="6.4563389"
   height="6.4563389"
   x="2.5669861"
   y="8.5602093" /><rect
   style="fill:#ffffff;stroke:#1a1a1a;stroke-width:1.48312"
   id="rect1-6-6"
   width="6.4563389"
   height="6.4563389"
   x="9.0448704"
   y="8.5602093" /><rect
   style="fill:#ffffff;stroke:#1a1a1a;stroke-width:1.48312"
   id="rect1-3-6"
   width="6.4563389"
   height="6.4563389"
   x="15.506994"
   y="8.5769749" /><rect
   style="fill:#ffffff;stroke:#1a1a1a;stroke-width:1.48312"
   id="rect1-6-5-2"
   width="6.4563389"
   height="6.4563389"
   x="21.98488"
   y="8.5769749" /><rect
   style="fill:#999999;stroke:#1a1a1a;stroke-width:1.48312"
   id="rect1-93-7"
   width="6.4563389"
   height="6.4563389"
   x="2.5669861"
   y="15.065717" /><rect
   style="fill:#ffffff;stroke:#1a1a1a;stroke-width:1.48312"
   id="rect1-6-6-9"
   width="6.4563389"
   height="6.4563389"
   x="9.0448704"
   y="15.065717" /><rect
   style="fill:#ffffff;stroke:#1a1a1a;stroke-width:1.48312"
   id="rect1-3-6-0"
   width="6.4563389"
   height="6.4563389"
   x="15.506994"
   y="15.08248" /><rect
   style="fill:#ffffff;stroke:#1a1a1a;stroke-width:1.48312"
   id="rect1-6-5-2-2"
   width="6.4563389"
   height="6.4563389"
   x="21.98488"
   y="15.08248" /></svg>
