<?xml version="1.0" encoding="UTF-8" standalone="no"?>
<!-- Generator: Adobe Illustrator 23.0.4, SVG Export Plug-In . SVG Version: 6.00 Build 0)  -->

<svg
   version="1.1"
   id="Layer_1"
   x="0px"
   y="0px"
   viewBox="0 0 48 48"
   style="enable-background:new 0 0 48 48;"
   xml:space="preserve"
   sodipodi:docname="Pivot-alternative.svg"
   inkscape:version="1.4.2 (ebf0e940d0, 2025-05-08)"
   xmlns:inkscape="http://www.inkscape.org/namespaces/inkscape"
   xmlns:sodipodi="http://sodipodi.sourceforge.net/DTD/sodipodi-0.dtd"
   xmlns="http://www.w3.org/2000/svg"
   xmlns:svg="http://www.w3.org/2000/svg"><defs
   id="defs9" /><sodipodi:namedview
   id="namedview9"
   pagecolor="#505050"
   bordercolor="#eeeeee"
   borderopacity="1"
   inkscape:showpageshadow="0"
   inkscape:pageopacity="0"
   inkscape:pagecheckerboard="0"
   inkscape:deskcolor="#505050"
   inkscape:zoom="17.458333"
   inkscape:cx="24.02864"
   inkscape:cy="24"
   inkscape:window-width="1920"
   inkscape:window-height="1043"
   inkscape:window-x="0"
   inkscape:window-y="0"
   inkscape:window-maximized="1"
   inkscape:current-layer="Layer_1" />
<style
   type="text/css"
   id="style1">
	.st0{fill:#FFFFFF;}
	.st1{fill:#333333;}
	.st2{fill:none;stroke:#000000;stroke-width:2.5;stroke-miterlimit:10;}
</style>
<g
   id="zXDtGm_1_">
</g>
<g
   id="g9">
	<rect
   x="6.9"
   y="10.6"
   class="st0"
   width="34.1"
   height="30.6"
   id="rect1" />
	<path
   class="st1"
   d="M6,6v36h36V6H6z M40,22L40,22v1l0,0v8l0,0v1l0,0v8l0,0H30h-1H19h-1H8l0,0V14l0,0h10h1h10h1h10l0,0V22z"
   id="path1" />
	<rect
   x="40"
   y="32"
   class="st0"
   width="0"
   height="8"
   id="rect2" />
	<rect
   x="40"
   y="23"
   class="st0"
   width="0"
   height="8"
   id="rect3" />
	<rect
   x="40"
   y="14"
   class="st0"
   width="0"
   height="8"
   id="rect4" />
	<rect
   x="-8"
   y="20"
   transform="matrix(4.486817e-11 -1 1 4.486817e-11 -14 34)"
   class="st1"
   width="36"
   height="8"
   id="rect5" />
	<g
   id="g8">
		<g
   id="g7">
			<path
   class="st2"
   d="M21.1,34.2c0,0,5.8,0.6,9.6-3.3c1.9-1.9,3.2-4.9,3.2-9.5"
   id="path5" />
			<g
   id="g5">
				<polygon
   points="21.9,38.6 14.8,33.5 22.8,30     "
   id="polygon5" />
			</g>
			<g
   id="g6">
				<polygon
   points="38.3,22.6 33.9,15.1 29.5,22.6     "
   id="polygon6" />
			</g>
		</g>
	</g>
</g>
<text
   xml:space="preserve"
   style="font-style:normal;font-variant:normal;font-weight:normal;font-stretch:normal;font-size:5.33333px;font-family:Sans;-inkscape-font-specification:Sans;text-align:start;writing-mode:lr-tb;direction:ltr;text-anchor:start;opacity:0.905606;fill:#000000;fill-opacity:0;stroke:#000000;stroke-width:0.1;stroke-dasharray:none"
   x="17.35561"
   y="20.563246"
   id="text9"><tspan
     sodipodi:role="line"
     id="tspan9"
     x="17.35561"
     y="20.563246" /></text><text
   xml:space="preserve"
   style="font-style:normal;font-variant:normal;font-weight:normal;font-stretch:normal;font-size:5.33333px;font-family:Sans;-inkscape-font-specification:Sans;text-align:start;writing-mode:lr-tb;direction:ltr;text-anchor:start;opacity:0.905606;fill:#000000;fill-opacity:1;stroke:#000000;stroke-width:0.1;stroke-dasharray:none"
   x="17.871122"
   y="20.21957"
   id="text10"><tspan
     sodipodi:role="line"
     id="tspan10"
     x="17.871122"
     y="20.21957" /></text><g
   id="g16"
   transform="translate(-2.8032349,-30.656041)"><circle
     style="opacity:1;fill:#ffffff;fill-opacity:1;stroke:#000000;stroke-width:0.782047;stroke-dasharray:none"
     id="path11"
     cx="23.077101"
     cy="50.848763"
     r="5.6441793" /><text
     xml:space="preserve"
     style="font-style:normal;font-variant:normal;font-weight:normal;font-stretch:normal;font-size:10.6667px;font-family:Sans;-inkscape-font-specification:Sans;text-align:start;writing-mode:lr-tb;direction:ltr;text-anchor:start;opacity:0.905606;fill:#000000;fill-opacity:1;stroke:#000000;stroke-width:0.1;stroke-dasharray:none"
     x="19.431255"
     y="54.228317"
     id="text11"><tspan
       sodipodi:role="line"
       id="tspan11"
       x="19.431255"
       y="54.228317"
       style="font-size:10.6667px">A</tspan></text></g></svg>
